<mxfile host="app.diagrams.net" agent="Mozilla/5.0 (Windows NT 10.0; Win64; x64) AppleWebKit/537.36 (KHTML, like Gecko) Chrome/138.0.0.0 Safari/537.36 Edg/138.0.0.0" version="27.1.3" pages="4">
  <diagram name="ページ1" id="4Lt4wY048gsgU0ypAWHa">
    <mxGraphModel grid="1" page="1" gridSize="10" guides="1" tooltips="1" connect="1" arrows="1" fold="1" pageScale="1" pageWidth="827" pageHeight="1169" math="0" shadow="0">
      <root>
        <mxCell id="0" />
        <mxCell id="1" parent="0" />
        <mxCell id="HJLuZe6wEFLBGleykUB2-6" style="edgeStyle=orthogonalEdgeStyle;rounded=0;orthogonalLoop=1;jettySize=auto;html=1;exitX=0.5;exitY=1;exitDx=0;exitDy=0;entryX=0.5;entryY=0;entryDx=0;entryDy=0;" edge="1" parent="1" source="HJLuZe6wEFLBGleykUB2-3" target="HJLuZe6wEFLBGleykUB2-5">
          <mxGeometry relative="1" as="geometry" />
        </mxCell>
        <mxCell id="HJLuZe6wEFLBGleykUB2-3" value="&lt;div&gt;rever(A,revA)関数&lt;/div&gt;&lt;div&gt;開始&lt;/div&gt;" style="rounded=0;whiteSpace=wrap;html=1;" vertex="1" parent="1">
          <mxGeometry x="160" width="120" height="60" as="geometry" />
        </mxCell>
        <mxCell id="HJLuZe6wEFLBGleykUB2-9" style="edgeStyle=orthogonalEdgeStyle;rounded=0;orthogonalLoop=1;jettySize=auto;html=1;exitX=0.5;exitY=1;exitDx=0;exitDy=0;entryX=0.5;entryY=0;entryDx=0;entryDy=0;" edge="1" parent="1" source="HJLuZe6wEFLBGleykUB2-5" target="HJLuZe6wEFLBGleykUB2-8">
          <mxGeometry relative="1" as="geometry" />
        </mxCell>
        <mxCell id="HJLuZe6wEFLBGleykUB2-5" value="detAの値を計算" style="rounded=1;whiteSpace=wrap;html=1;" vertex="1" parent="1">
          <mxGeometry x="160" y="90" width="120" height="60" as="geometry" />
        </mxCell>
        <mxCell id="HJLuZe6wEFLBGleykUB2-11" style="edgeStyle=orthogonalEdgeStyle;rounded=0;orthogonalLoop=1;jettySize=auto;html=1;exitX=0.5;exitY=1;exitDx=0;exitDy=0;entryX=0.5;entryY=0;entryDx=0;entryDy=0;" edge="1" parent="1" source="HJLuZe6wEFLBGleykUB2-8" target="HJLuZe6wEFLBGleykUB2-10">
          <mxGeometry relative="1" as="geometry" />
        </mxCell>
        <mxCell id="HJLuZe6wEFLBGleykUB2-20" style="edgeStyle=orthogonalEdgeStyle;rounded=0;orthogonalLoop=1;jettySize=auto;html=1;exitX=1;exitY=0.5;exitDx=0;exitDy=0;entryX=1;entryY=0.5;entryDx=0;entryDy=0;" edge="1" parent="1" source="HJLuZe6wEFLBGleykUB2-8" target="HJLuZe6wEFLBGleykUB2-16">
          <mxGeometry relative="1" as="geometry" />
        </mxCell>
        <mxCell id="HJLuZe6wEFLBGleykUB2-8" value="detA != 0" style="rhombus;whiteSpace=wrap;html=1;" vertex="1" parent="1">
          <mxGeometry x="160" y="170" width="120" height="80" as="geometry" />
        </mxCell>
        <mxCell id="HJLuZe6wEFLBGleykUB2-14" style="edgeStyle=orthogonalEdgeStyle;rounded=0;orthogonalLoop=1;jettySize=auto;html=1;exitX=0.5;exitY=1;exitDx=0;exitDy=0;entryX=0.5;entryY=0;entryDx=0;entryDy=0;" edge="1" parent="1" source="HJLuZe6wEFLBGleykUB2-10" target="HJLuZe6wEFLBGleykUB2-13">
          <mxGeometry relative="1" as="geometry" />
        </mxCell>
        <mxCell id="HJLuZe6wEFLBGleykUB2-10" value="逆行列revAの値を&lt;div&gt;計算&lt;/div&gt;" style="rounded=1;whiteSpace=wrap;html=1;" vertex="1" parent="1">
          <mxGeometry x="160" y="270" width="120" height="60" as="geometry" />
        </mxCell>
        <mxCell id="HJLuZe6wEFLBGleykUB2-12" value="終了" style="rounded=0;whiteSpace=wrap;html=1;" vertex="1" parent="1">
          <mxGeometry x="160" y="540" width="120" height="60" as="geometry" />
        </mxCell>
        <mxCell id="HJLuZe6wEFLBGleykUB2-17" style="edgeStyle=orthogonalEdgeStyle;rounded=0;orthogonalLoop=1;jettySize=auto;html=1;" edge="1" parent="1" source="HJLuZe6wEFLBGleykUB2-13" target="HJLuZe6wEFLBGleykUB2-16">
          <mxGeometry relative="1" as="geometry" />
        </mxCell>
        <mxCell id="HJLuZe6wEFLBGleykUB2-13" value="outout(revA)関数の&lt;div&gt;呼び出し&lt;/div&gt;" style="rounded=1;whiteSpace=wrap;html=1;" vertex="1" parent="1">
          <mxGeometry x="160" y="360" width="120" height="60" as="geometry" />
        </mxCell>
        <mxCell id="HJLuZe6wEFLBGleykUB2-18" style="edgeStyle=orthogonalEdgeStyle;rounded=0;orthogonalLoop=1;jettySize=auto;html=1;exitX=0.5;exitY=1;exitDx=0;exitDy=0;entryX=0.5;entryY=0;entryDx=0;entryDy=0;" edge="1" parent="1" source="HJLuZe6wEFLBGleykUB2-16" target="HJLuZe6wEFLBGleykUB2-12">
          <mxGeometry relative="1" as="geometry" />
        </mxCell>
        <mxCell id="HJLuZe6wEFLBGleykUB2-16" value="return detA" style="rounded=1;whiteSpace=wrap;html=1;" vertex="1" parent="1">
          <mxGeometry x="160" y="450" width="120" height="60" as="geometry" />
        </mxCell>
        <mxCell id="HJLuZe6wEFLBGleykUB2-19" value="True" style="text;html=1;align=center;verticalAlign=middle;resizable=0;points=[];autosize=1;strokeColor=none;fillColor=none;" vertex="1" parent="1">
          <mxGeometry x="215" y="248" width="50" height="30" as="geometry" />
        </mxCell>
        <mxCell id="HJLuZe6wEFLBGleykUB2-21" value="False" style="text;html=1;align=center;verticalAlign=middle;resizable=0;points=[];autosize=1;strokeColor=none;fillColor=none;" vertex="1" parent="1">
          <mxGeometry x="265" y="178" width="50" height="30" as="geometry" />
        </mxCell>
      </root>
    </mxGraphModel>
  </diagram>
  <diagram id="uL1UlBI1thSELs1-kAAo" name="ページ2">
    <mxGraphModel grid="0" page="0" gridSize="10" guides="1" tooltips="1" connect="1" arrows="1" fold="1" pageScale="1" pageWidth="827" pageHeight="1169" math="0" shadow="0">
      <root>
        <mxCell id="0" />
        <mxCell id="1" parent="0" />
        <mxCell id="JRX448x-KTy5fNdVHSvQ-1" value="テキスト" style="text;html=1;align=center;verticalAlign=middle;resizable=0;points=[];autosize=1;strokeColor=none;fillColor=none;fontSize=16;" vertex="1" parent="1">
          <mxGeometry x="-121.5" y="-491.5" width="82" height="31" as="geometry" />
        </mxCell>
        <mxCell id="P0O6aTI8jOUP-DYnqr6--1" value="テキスト" style="text;html=1;align=center;verticalAlign=middle;resizable=0;points=[];autosize=1;strokeColor=none;fillColor=none;fontSize=16;" vertex="1" parent="1">
          <mxGeometry x="-371" y="-386" width="82" height="31" as="geometry" />
        </mxCell>
      </root>
    </mxGraphModel>
  </diagram>
  <diagram id="QVsRkBeQGSpA3REkoy7W" name="ページ3">
    <mxGraphModel grid="1" page="1" gridSize="10" guides="1" tooltips="1" connect="1" arrows="1" fold="1" pageScale="1" pageWidth="827" pageHeight="1169" math="0" shadow="0">
      <root>
        <mxCell id="0" />
        <mxCell id="1" parent="0" />
        <mxCell id="PYQEKz0mW0x73DgLKJ47-1" style="edgeStyle=orthogonalEdgeStyle;rounded=0;orthogonalLoop=1;jettySize=auto;html=1;" edge="1" parent="1" source="HT0hKqGz54wudJfcZTxe-1" target="HT0hKqGz54wudJfcZTxe-2">
          <mxGeometry relative="1" as="geometry" />
        </mxCell>
        <mxCell id="HT0hKqGz54wudJfcZTxe-1" value="&lt;font style=&quot;font-size: 14px;&quot;&gt;ユーザーからの登山ルール条件の&lt;/font&gt;&lt;div&gt;&lt;span style=&quot;font-size: 14px;&quot;&gt;提示(start)&lt;/span&gt;&lt;/div&gt;" style="rounded=0;whiteSpace=wrap;html=1;" vertex="1" parent="1">
          <mxGeometry x="160" y="80" width="120" height="60" as="geometry" />
        </mxCell>
        <mxCell id="PYQEKz0mW0x73DgLKJ47-6" value="" style="edgeStyle=orthogonalEdgeStyle;rounded=0;orthogonalLoop=1;jettySize=auto;html=1;" edge="1" parent="1" source="HT0hKqGz54wudJfcZTxe-2" target="HT0hKqGz54wudJfcZTxe-5">
          <mxGeometry relative="1" as="geometry" />
        </mxCell>
        <mxCell id="HT0hKqGz54wudJfcZTxe-2" value="&lt;font style=&quot;font-size: 14px;&quot;&gt;生成AIによる提案&lt;/font&gt;&lt;div&gt;&lt;font style=&quot;font-size: 14px;&quot;&gt;(LLM)&lt;/font&gt;&lt;/div&gt;" style="rounded=0;whiteSpace=wrap;html=1;" vertex="1" parent="1">
          <mxGeometry x="160" y="160" width="120" height="60" as="geometry" />
        </mxCell>
        <mxCell id="PYQEKz0mW0x73DgLKJ47-5" value="" style="edgeStyle=orthogonalEdgeStyle;rounded=0;orthogonalLoop=1;jettySize=auto;html=1;" edge="1" parent="1" source="HT0hKqGz54wudJfcZTxe-4" target="HT0hKqGz54wudJfcZTxe-6">
          <mxGeometry relative="1" as="geometry" />
        </mxCell>
        <mxCell id="HT0hKqGz54wudJfcZTxe-4" value="&lt;span style=&quot;font-size: 14px;&quot;&gt;道、ペースの選択&lt;/span&gt;&lt;br&gt;&lt;div&gt;&lt;span style=&quot;background-color: transparent; color: light-dark(rgb(0, 0, 0), rgb(255, 255, 255));&quot;&gt;&lt;font size=&quot;3&quot;&gt;(GA)　　　　　　　　　　　　　　　　　　　　　　　　　　　　　　　　　　　　　　　　　　　　　　　　　　　　　　　　　　　　　　　　　　　　　　　　　　　　　　　　　　　　　　　　　　　　　　　　　　　　　　　　　　　　　　　　　　　　　　　　　　　　　　　　　　　　　　　　　　　　　　　　　　　　　　　　　　　　　　　　　　　　　　　　　　　　　　&lt;/font&gt;&lt;/span&gt;&lt;/div&gt;" style="rounded=0;whiteSpace=wrap;html=1;" vertex="1" parent="1">
          <mxGeometry x="160" y="240" width="120" height="60" as="geometry" />
        </mxCell>
        <mxCell id="PYQEKz0mW0x73DgLKJ47-4" value="" style="edgeStyle=orthogonalEdgeStyle;rounded=0;orthogonalLoop=1;jettySize=auto;html=1;" edge="1" parent="1" source="HT0hKqGz54wudJfcZTxe-5" target="PYQEKz0mW0x73DgLKJ47-2">
          <mxGeometry relative="1" as="geometry" />
        </mxCell>
        <mxCell id="HT0hKqGz54wudJfcZTxe-5" value="&lt;font style=&quot;font-size: 14px;&quot;&gt;休憩管理&lt;br&gt;&lt;/font&gt;&lt;div&gt;&lt;font size=&quot;3&quot;&gt;(NN)&lt;/font&gt;&lt;/div&gt;" style="rounded=0;whiteSpace=wrap;html=1;" vertex="1" parent="1">
          <mxGeometry x="160" y="320" width="120" height="60" as="geometry" />
        </mxCell>
        <mxCell id="PYQEKz0mW0x73DgLKJ47-3" value="" style="edgeStyle=orthogonalEdgeStyle;rounded=0;orthogonalLoop=1;jettySize=auto;html=1;" edge="1" parent="1" source="HT0hKqGz54wudJfcZTxe-6" target="PYQEKz0mW0x73DgLKJ47-2">
          <mxGeometry relative="1" as="geometry" />
        </mxCell>
        <mxCell id="HT0hKqGz54wudJfcZTxe-6" value="&lt;font style=&quot;font-size: 14px;&quot;&gt;曖昧さの導入&lt;/font&gt;&lt;div&gt;&lt;font size=&quot;3&quot;&gt;(Fuzzy)&lt;/font&gt;&lt;/div&gt;" style="rounded=0;whiteSpace=wrap;html=1;" vertex="1" parent="1">
          <mxGeometry x="160" y="400" width="120" height="60" as="geometry" />
        </mxCell>
        <mxCell id="PYQEKz0mW0x73DgLKJ47-2" value="&lt;font style=&quot;font-size: 14px;&quot;&gt;登山ルートの決定&lt;/font&gt;&lt;div&gt;&lt;font style=&quot;font-size: 14px;&quot;&gt;(end)&lt;/font&gt;&lt;/div&gt;" style="rounded=0;whiteSpace=wrap;html=1;" vertex="1" parent="1">
          <mxGeometry x="160" y="480" width="120" height="60" as="geometry" />
        </mxCell>
        <mxCell id="PYQEKz0mW0x73DgLKJ47-8" value="" style="endArrow=none;html=1;rounded=0;exitX=1;exitY=0.5;exitDx=0;exitDy=0;" edge="1" parent="1" source="PYQEKz0mW0x73DgLKJ47-2">
          <mxGeometry width="50" height="50" relative="1" as="geometry">
            <mxPoint x="240" y="410" as="sourcePoint" />
            <mxPoint x="310" y="510" as="targetPoint" />
          </mxGeometry>
        </mxCell>
        <mxCell id="PYQEKz0mW0x73DgLKJ47-9" value="" style="endArrow=none;html=1;rounded=0;" edge="1" parent="1">
          <mxGeometry width="50" height="50" relative="1" as="geometry">
            <mxPoint x="310" y="510" as="sourcePoint" />
            <mxPoint x="310" y="190" as="targetPoint" />
          </mxGeometry>
        </mxCell>
        <mxCell id="PYQEKz0mW0x73DgLKJ47-10" value="" style="endArrow=classic;html=1;rounded=0;entryX=1;entryY=0.5;entryDx=0;entryDy=0;" edge="1" parent="1" target="HT0hKqGz54wudJfcZTxe-2">
          <mxGeometry width="50" height="50" relative="1" as="geometry">
            <mxPoint x="310" y="190" as="sourcePoint" />
            <mxPoint x="290" y="220" as="targetPoint" />
          </mxGeometry>
        </mxCell>
      </root>
    </mxGraphModel>
  </diagram>
  <diagram id="U15IdxK7NNWaEvEscPW8" name="ページ4">
    <mxGraphModel grid="1" page="1" gridSize="10" guides="1" tooltips="1" connect="1" arrows="1" fold="1" pageScale="1" pageWidth="827" pageHeight="1169" math="0" shadow="0">
      <root>
        <mxCell id="0" />
        <mxCell id="1" parent="0" />
      </root>
    </mxGraphModel>
  </diagram>
</mxfile>
